<svg width="10" height="10" viewBox="0 0 10 10" fill="none" xmlns="http://www.w3.org/2000/svg">
<path d="M0.833338 4.16666H7.15834L4.40834 1.42499C4.25142 1.26807 4.16326 1.05524 4.16326 0.833325C4.16326 0.611407 4.25142 0.398578 4.40834 0.241658C4.56526 0.0847387 4.77809 -0.00341797 5 -0.00341797C5.22192 -0.00341797 5.43475 0.0847387 5.59167 0.241658L9.75834 4.40833C9.83421 4.48758 9.89368 4.58103 9.93334 4.68333C10.0167 4.88621 10.0167 5.11377 9.93334 5.31666C9.89368 5.41895 9.83421 5.51241 9.75834 5.59166L5.59167 9.75832C5.5142 9.83643 5.42203 9.89843 5.32049 9.94073C5.21894 9.98304 5.11001 10.0048 5 10.0048C4.88999 10.0048 4.78107 9.98304 4.67952 9.94073C4.57797 9.89843 4.48581 9.83643 4.40834 9.75832C4.33023 9.68086 4.26824 9.58869 4.22593 9.48714C4.18362 9.38559 4.16184 9.27667 4.16184 9.16666C4.16184 9.05665 4.18362 8.94773 4.22593 8.84618C4.26824 8.74463 4.33023 8.65246 4.40834 8.57499L7.15834 5.83333H0.833338C0.612325 5.83333 0.400362 5.74553 0.244081 5.58925C0.0878019 5.43297 4.76837e-06 5.22101 4.76837e-06 4.99999C4.76837e-06 4.77898 0.0878019 4.56702 0.244081 4.41074C0.400362 4.25446 0.612325 4.16666 0.833338 4.16666Z" fill="#F5F5F5"/>
</svg>
